<svg width="15" height="14" viewBox="0 0 15 14" fill="none" xmlns="http://www.w3.org/2000/svg">
<g clip-path="url(#clip0_1545_11650)">
<path d="M14 0.5H11.5L10.63 9.15C10.5938 9.38845 10.4727 9.6058 10.289 9.762C10.1052 9.9182 9.87117 10.0027 9.63001 10H3.33001C3.11194 10.0114 2.89614 9.95107 2.71557 9.82829C2.535 9.7055 2.39959 9.52698 2.33001 9.32L1.00001 5.32C0.950418 5.16962 0.937251 5.0096 0.961591 4.85314C0.98593 4.69667 1.04708 4.54822 1.14001 4.42C1.23681 4.28368 1.36626 4.17381 1.5165 4.10043C1.66674 4.02706 1.83297 3.99253 2.00001 4H11.15" stroke="#000001" stroke-linecap="round" stroke-linejoin="round"/>
<path d="M3.5 13.5C3.77614 13.5 4 13.2761 4 13C4 12.7239 3.77614 12.5 3.5 12.5C3.22386 12.5 3 12.7239 3 13C3 13.2761 3.22386 13.5 3.5 13.5Z" stroke="#000001" stroke-linecap="round" stroke-linejoin="round"/>
<path d="M10 13.5C10.2761 13.5 10.5 13.2761 10.5 13C10.5 12.7239 10.2761 12.5 10 12.5C9.72386 12.5 9.5 12.7239 9.5 13C9.5 13.2761 9.72386 13.5 10 13.5Z" stroke="#000001" stroke-linecap="round" stroke-linejoin="round"/>
</g>
<defs>
<clipPath id="clip0_1545_11650">
<rect width="14" height="14" fill="white" transform="translate(0.5)"/>
</clipPath>
</defs>
</svg>
