<?xml version="1.0" encoding="UTF-8"?><svg id="a" xmlns="http://www.w3.org/2000/svg" width="160.87mm" height="36.55mm" viewBox="0 0 456 103.6"><path d="m183.7,24.6l-5.6-17.8-5.5,17.8h-4L160.5,1h4.5l5.6,17.8,5.6-17.8h4l5.5,17.8,5.5-17.8h4.5l-8.1,23.6h-3.9Z"/><path d="m201.1,25c-3.2,0-5.4-2.1-5.4-5.1,0-3.6,3.4-6,8.2-6,.7,0,1.4,0,2.1.1v-.8c0-1.6-1.3-2.7-3.2-2.7-1.8,0-3.7.6-5.7,1.6v-3.6c2.1-1,4.2-1.4,6.2-1.4,4.2,0,6.9,2.6,6.9,6.3v11.2h-4.2v-1.4c-1.4,1.2-3.1,1.8-4.9,1.8h0Zm1.5-3.4c1.2,0,2.4-.6,3.5-1.7v-3.4c-.6-.1-1.2-.1-1.9-.1-2.5,0-4.1,1.2-4.1,2.8-.1,1.5,1,2.4,2.5,2.4h0Z"/><path d="m224.8,7.5v3.5h-4.9v7.9c0,1.4,1,2.4,2.5,2.4.7,0,1.5-.2,2.4-.7v3.6c-1.2.5-2.4.7-3.6.7-3.4,0-5.7-2.3-5.7-5.5v-8.4h-2.9v-3.5h2.9V2.7h4.4v4.8h4.9Z"/><path d="m235.9,7.1c1.7,0,3.5.4,5.2,1.2v3.9c-1.5-1-3-1.5-4.4-1.5-3,0-5.1,2.2-5.1,5.3s2.1,5.3,5.1,5.3c1.4,0,2.9-.5,4.4-1.5v3.9c-1.7.8-3.5,1.2-5.2,1.2-5.2,0-8.8-3.7-8.8-9s3.7-8.8,8.8-8.8h0Z"/><path d="m249.3,0v9c1.5-1.2,3.2-1.9,5-1.9,3.6,0,6.1,2.5,6.1,6.2v11.4h-4.4v-10.6c0-1.8-1.2-3.1-3-3.1-1.3,0-2.5.6-3.7,1.8v11.9h-4.4V0h4.4Z"/><path d="m81.6,1.7c-3.3,0-6.6.4-8.7,2.5-2.1,2.1-2.9,5.2-2.9,9s.7,6.9,2.8,8.9,5.5,2.6,8.8,2.6,6.6-.4,8.7-2.5,2.9-5.2,2.9-9-.7-6.8-2.8-8.9c-2.1-2.1-5.5-2.6-8.8-2.6h0Zm5,16.9c-1.2,1.3-3.3,1.6-5,1.6s-3.8-.2-5-1.6c-1.2-1.3-1.2-3.2-1.2-5.5s.1-4.1,1.2-5.4c1.2-1.3,3-1.6,5-1.6s3.9.2,5,1.6,1.2,3.1,1.2,5.4,0,4.2-1.2,5.5h0ZM35.6,2.1h-4.7c-.2,0-.4.2-.4.4v21.4c0,.2.2.4.4.4h4.7c.2,0,.4-.2.4-.4V2.5c0-.2-.2-.4-.4-.4ZM15.9,13L24.2,2.7c.2-.2,0-.5-.3-.5h-6c-.1,0-.3.1-.4.2l-5.5,7.3L6.7,2.3c0-.1-.2-.2-.3-.2H.4C.1,2.1,0,2.4.1,2.6l8.4,10.5L.1,23.7c-.2.2,0,.5.3.5h6c.2,0,.3-.1.4-.2l5.6-7.3,5.3,7.3c.1.1.2.2.4.2h5.9c.3,0,.5-.3.3-.5l-8.4-10.7h0ZM130.2,3.7c-1.9-1.8-5-2-7.5-2-3.2,0-5.2.7-6.5,1.3h-.9c-1.2-.7-3.3-1.3-6.7-1.3-2.5,0-5.5.2-7.4,1.8-1.6,1.3-1.9,3-1.9,6.6v13.8c0,.2.2.4.4.4h4.7c.2,0,.4-.2.4-.4v-11.3c0-2-.1-4.2.4-5,.3-.6.9-1.3,3.4-1.3,3,0,3.8.2,4.2,1.5.1.3.2.8.2,1.3v14.7c0,.2.2.4.4.4h4.7c.2,0,.4-.2.4-.4v-14.6c0-.6.1-1,.2-1.3.5-1.3,1.2-1.5,4.2-1.5,2.6,0,3.1.7,3.4,1.3.4.8.4,2.9.4,5v11.3c0,.2.2.4.4.4h4.7c.2,0,.4-.2.4-.4v-13c-.1-3.7-.2-5.6-2-7.3h0Zm-67.4,1.4c-2.2-3-6.1-3.9-10.2-3.7-4.1.2-7,1.1-7.7,1.4-.5.2-.4.6-.4.8,0,.8-.1,2.8-.1,3.7,0,.4.5.5.8.4,1.5-.5,4.3-1.4,6.5-1.6,2.4-.2,5.7,0,6.6,1.4.4.6.5,1.6.5,2.7-1.5-.1-3.7-.3-5.9-.2-1.7.1-5,.2-7,1.3-1.6.9-2.5,1.6-3,3-.4,1.1-.5,2.5-.4,3.6.3,2.6,1.2,3.8,2.4,4.7,1.9,1.4,4.3,2.1,9.2,2,6.6-.1,8.3-2.3,9.2-3.8,1.5-2.6,1.2-6.6,1.2-9.1.1-1.1-.1-4.5-1.7-6.6h0Zm-4.3,13.4c-.6,1.3-2.8,1.5-4.2,1.6-2.4.1-4.2,0-5.4-.5-.8-.4-1.3-1.2-1.4-2.2,0-.8,0-1.3.3-1.8.8-1.1,3.1-1.4,5.4-1.4,1.5-.1,3.9.1,5.6.3.2,1.6.1,3.3-.3,4h0ZM144.5,2.1h-4.7c-.2,0-.4.2-.4.4v21.4c0,.2.2.4.4.4h4.7c.2,0,.4-.2.4-.4V2.5c0-.2-.2-.4-.4-.4Z"/><path d="m286.2,8.3c0-2.4-1.7-4-4-4-1.7,0-3.7.8-5.5,2.2V2.3c2.1-1.3,4.5-1.9,6.8-1.9,4.2,0,7.3,3,7.3,7.2,0,3.6-2.6,7.5-8.6,13h8.8v3.8h-14.9v-2.8c7.3-6.3,10.1-10.2,10.1-13.3h0Z"/><path d="m5.3,58.5c1.9,0,3.3-1,3.3-2.5,0-3.6-8.6-1.8-8.6-8,0-3,2.6-5.1,6.3-5.1,1.6,0,3.2.3,4.8,1v3.1c-1.5-1-3.1-1.5-4.5-1.5-1.9,0-3.2,1-3.2,2.4,0,3.5,8.6,1.8,8.6,8,0,3.1-2.7,5.3-6.4,5.3-1.7,0-3.5-.4-5.2-1.2v-3.1c1.6,1,3.3,1.6,4.9,1.6h0Z"/><path d="m18.2,48v1c1.1-.9,2.4-1.3,3.6-1.3,1.5,0,2.8.7,3.6,1.9,1.3-1.3,2.8-1.9,4.3-1.9,2.5,0,4.3,1.8,4.3,4.5v8.7h-3.3v-8.2c0-1.2-.8-2.1-2-2.1-.9,0-1.8.4-2.6,1.3v9h-3.3v-8.2c0-1.2-.9-2.1-2-2.1-.9,0-1.8.4-2.6,1.3v9h-3.3v-12.9s3.3,0,3.3,0Z"/><path d="m40.7,61.2c-2.4,0-4.1-1.6-4.1-3.8,0-2.7,2.5-4.5,6.2-4.5.5,0,1,0,1.6.1v-.6c0-1.2-1-2-2.4-2-1.3,0-2.8.4-4.3,1.2v-2.7c1.6-.7,3.1-1.1,4.7-1.1,3.1,0,5.2,2,5.2,4.7v8.4h-3.1v-1c-1.2.8-2.5,1.3-3.8,1.3h0Zm1.1-2.6c.9,0,1.8-.5,2.6-1.3v-2.5c-.5-.1-.9-.1-1.4-.1-1.8,0-3.1.9-3.1,2.1,0,1.1.8,1.8,1.9,1.8h0Z"/><path d="m54.4,48v1.3c.9-1,2.1-1.6,3.2-1.6.4,0,.7,0,1.1.1v2.9c-.4-.1-.8-.2-1.2-.2-1.1,0-2.2.6-3.1,1.7v8.6h-3.3v-12.8h3.3Z"/><path d="m69.4,48v2.7h-3.7v5.9c0,1.1.7,1.8,1.9,1.8.5,0,1.2-.2,1.8-.5v2.7c-.9.4-1.8.5-2.7.5-2.5,0-4.3-1.7-4.3-4.2v-6.4h-2.2v-2.5h2.2v-3.6h3.3v3.6h3.7Z"/><path d="m77.4,47.7c3.4,0,5.7,2.7,5.7,6.4,0,.4,0,.8-.1,1.2h-8.7c.2,2,1.8,3.3,3.9,3.3,1.2,0,2.5-.4,3.8-1.2v2.8c-1.5.7-2.9,1-4.4,1-3.9,0-6.6-2.8-6.6-6.8s2.8-6.7,6.4-6.7h0Zm-.1,2.5c-1.6,0-2.8,1.2-3,3h5.6c-.1-1.8-1.1-3-2.6-3Z"/><path d="m89,48v1.3c.9-1,2.1-1.6,3.2-1.6.4,0,.7,0,1.1.1v2.9c-.4-.1-.8-.2-1.2-.2-1.1,0-2.2.6-3.1,1.7v8.6h-3.3v-12.8h3.3Z"/><path d="m107.2,47.7c3.4,0,5.7,2.7,5.7,6.4,0,.4,0,.8-.1,1.2h-8.7c.2,2,1.8,3.3,3.9,3.3,1.2,0,2.5-.4,3.8-1.2v2.8c-1.5.7-2.9,1-4.4,1-3.9,0-6.6-2.8-6.6-6.8s2.7-6.7,6.4-6.7h0Zm-.1,2.5c-1.6,0-2.8,1.2-3,3h5.6c-.1-1.8-1.1-3-2.6-3Z"/><path d="m118.8,60.9l-5.1-12.9h3.4l3.1,8.4,3.1-8.4h3.4l-5.1,12.9h-2.8Z"/><path d="m133.8,47.7c3.4,0,5.7,2.7,5.7,6.4,0,.4,0,.8-.1,1.2h-8.7c.2,2,1.8,3.3,3.9,3.3,1.2,0,2.5-.4,3.8-1.2v2.8c-1.5.7-2.9,1-4.4,1-3.9,0-6.6-2.8-6.6-6.8s2.7-6.7,6.4-6.7h0Zm-.2,2.5c-1.6,0-2.8,1.2-3,3h5.6c0-1.8-1.1-3-2.6-3h0Z"/><path d="m145.4,48v1.3c.9-1,2.1-1.6,3.2-1.6.4,0,.7,0,1.1.1v2.9c-.4-.1-.8-.2-1.2-.2-1.1,0-2.2.6-3.1,1.7v8.6h-3.3v-12.8h3.3Z"/><path d="m153.3,66.5l2.5-6.1-4.9-12.4h3.4l3.1,8.4,3.1-8.4h3.4l-7.3,18.5h-3.3Z"/><path d="m182.5,60.9l-2.6-8.8-2.6,8.8h-3l-4.4-12.9h3.3l2.6,8.8,2.6-8.8h3l2.6,8.8,2.6-8.8h3.3l-4.4,12.9h-3Z"/><path d="m197.1,47.7c3.4,0,5.7,2.7,5.7,6.4,0,.4,0,.8-.1,1.2h-8.7c.2,2,1.8,3.3,3.9,3.3,1.2,0,2.5-.4,3.8-1.2v2.8c-1.5.7-2.9,1-4.4,1-3.9,0-6.6-2.8-6.6-6.8s2.7-6.7,6.4-6.7h0Zm-.1,2.5c-1.6,0-2.8,1.2-3,3h5.6c-.1-1.8-1.2-3-2.6-3h0Z"/><path d="m208.6,61.2c-2.4,0-4.1-1.6-4.1-3.8,0-2.7,2.5-4.5,6.2-4.5.5,0,1,0,1.6.1v-.6c0-1.2-1-2-2.4-2-1.3,0-2.8.4-4.3,1.2v-2.7c1.6-.7,3.1-1.1,4.7-1.1,3.1,0,5.2,2,5.2,4.7v8.4h-3.1v-1c-1.2.8-2.5,1.3-3.8,1.3h0Zm1.1-2.6c.9,0,1.8-.5,2.6-1.3v-2.5c-.5-.1-.9-.1-1.4-.1-1.9,0-3.1.9-3.1,2.1-.1,1.1.7,1.8,1.9,1.8h0Z"/><path d="m222.2,48v1.3c.9-1,2.1-1.6,3.2-1.6.4,0,.7,0,1.1.1v2.9c-.4-.1-.8-.2-1.2-.2-1.1,0-2.2.6-3.1,1.7v8.6h-3.3v-12.8h3.3Z"/><circle cx="21.2" cy="90.8" r="2.8" style="fill:#00a84b;"/><circle cx="24.4" cy="85" r="2.6" style="fill:#ff4131;"/><path d="m17.5,103c-1,0-2-.6-2.4-1.6l-6.8-15.4c-.6-1.3,0-2.9,1.3-3.5s2.9,0,3.5,1.3l6.8,15.4c.6,1.3,0,2.9-1.3,3.5-.3.2-.7.3-1.1.3h0Z" style="fill:#fb0;"/><path d="m9.5,102.9c-1.1,0-2.1-.6-2.6-1.7L.2,86.4c-.6-1.4,0-3.1,1.4-3.8,1.4-.7,3.1,0,3.8,1.4l6.6,14.8c.6,1.4,0,3.1-1.4,3.8-.4.2-.7.3-1.1.3h0Z" style="fill:#0084f6;"/><path d="m116.2,99c-.6-.3-1-.7-1.3-1.1h-.1v1.3h-1.7v-13.3h1.8v4.2l-.1,1.3h.1c.3-.4.7-.8,1.3-1.1s1.2-.4,1.9-.4c1.2,0,2.2.5,3.1,1.4s1.3,2.1,1.3,3.4-.4,2.5-1.3,3.4-1.9,1.4-3.1,1.4c-.7-.1-1.3-.2-1.9-.5h0Zm3.8-2c.6-.6.9-1.4.9-2.4s-.3-1.8-.9-2.4-1.3-.9-2.1-.9-1.5.3-2.1.9-.9,1.4-.9,2.4.3,1.8.9,2.4,1.3.9,2.1.9,1.5-.3,2.1-.9h0Z" style="fill:#747d80;"/><path d="m124.1,103l2.2-4.6-3.9-8.5h1.9l2.8,6.5h0l2.7-6.5h1.9l-5.9,13.1h-1.7Z" style="fill:#747d80;"/><path d="m134.9,92.3c0-4,3.3-7.2,7.3-7.2,2.2,0,3.8.8,4.9,2l-1.4,1.4c-.9-.8-2-1.4-3.5-1.4-2.9,0-5.1,2.3-5.1,5.2s2.3,5.2,5.1,5.2c1.9,0,2.9-.8,3.6-1.4.6-.6.9-1.4,1.1-2.5h-4.7v-2h6.6c.1.3.1.8.1,1.2,0,1.5-.4,3.3-1.7,4.6-1.3,1.3-2.9,2-5,2-4,0-7.3-3.2-7.3-7.1h0Zm19.3-2.1c-2.6,0-4.6,1.9-4.6,4.6s2.1,4.6,4.6,4.6,4.6-2,4.6-4.6-2-4.6-4.6-4.6Zm0,7.4c-1.4,0-2.6-1.2-2.6-2.8s1.2-2.8,2.6-2.8,2.6,1.1,2.6,2.8-1.2,2.8-2.6,2.8Zm10.1-7.4c-2.6,0-4.6,1.9-4.6,4.6s2.1,4.6,4.6,4.6,4.6-2,4.6-4.6-2-4.6-4.6-4.6Zm0,7.4c-1.4,0-2.6-1.2-2.6-2.8s1.2-2.8,2.6-2.8,2.6,1.1,2.6,2.8-1.2,2.8-2.6,2.8Zm12.4-7.1v.8h-.1c-.4-.5-1.3-1-2.4-1-2.3,0-4.4,2-4.4,4.6s2.1,4.6,4.4,4.6c1.1,0,2-.5,2.4-1.1h.1v.6c0,1.8-.9,2.7-2.5,2.7-1.2,0-2-.9-2.3-1.7l-1.8.7c.5,1.2,1.9,2.7,4.1,2.7,2.4,0,4.4-1.4,4.4-4.8v-8.3l-1.9.2h0Zm-2.3,7.1c-1.4,0-2.6-1.2-2.6-2.8s1.2-2.8,2.6-2.8,2.5,1.2,2.5,2.8-1.1,2.8-2.5,2.8Zm7.7,1.6h-2v-13.6h2v13.6q0-.1,0,0Zm5.6-1.6c-1,0-1.8-.5-2.2-1.4l6.2-2.6-.2-.5c-.4-1-1.6-2.9-4-2.9s-4.4,1.9-4.4,4.6,2,4.6,4.6,4.6c2.1,0,3.4-1.3,3.9-2.1l-1.6-1.1c-.6.9-1.3,1.4-2.3,1.4h0Zm-.2-5.6c.8,0,1.5.4,1.7,1l-4.1,1.7c-.1-1.8,1.4-2.7,2.4-2.7h0Z" style="fill:#747d80;"/><path d="m51.8,99.3h-1.8l-3-8.8h-.1l-3,8.8h-1.8l-3.7-13.3h1.8l2.9,10.4h.1l3-8.7h1.7l3,8.7h.1l2.6-10.4h1.8l-3.6,13.3h0Z" style="fill:#747d80;"/><path d="m56.2,98.2c-.9-.9-1.3-2.1-1.3-3.5,0-1.3.4-2.5,1.3-3.4s2-1.4,3.3-1.4,2.5.4,3.3,1.3,1.3,2.1,1.3,3.5v.3h-7.4c.1.9.4,1.6,1,2.2s1.3.8,2,.8c1.3,0,2.1-.5,2.6-1.6l1.6.6c-.3.7-.8,1.3-1.5,1.8s-1.6.7-2.6.7c-1.5.1-2.7-.4-3.6-1.3h0Zm5.3-6.1c-.5-.5-1.1-.7-2-.7-.7,0-1.2.2-1.7.6s-.8.9-1,1.6h5.4c0-.5-.3-1-.7-1.5h0Z" style="fill:#747d80;"/><path d="m66.2,98.7c-.7-.6-1-1.3-1-2.2,0-1,.4-1.8,1.2-2.3s1.8-.8,2.9-.8c1,0,1.9.2,2.6.6v-.3c0-.7-.2-1.2-.7-1.6s-1.1-.6-1.8-.6c-.5,0-1,.1-1.4.3s-.7.6-.8,1l-1.6-.7c.2-.5.6-1.1,1.3-1.5s1.5-.7,2.5-.7c1.2,0,2.2.3,3,1s1.2,1.6,1.2,2.9v5.5h-1.7v-1.3h-.1c-.7,1-1.7,1.6-3.1,1.6-1-.1-1.8-.3-2.5-.9h0Zm4.7-1.5c.6-.5.9-1.2.9-1.9-.5-.4-1.2-.6-2.2-.6-.8,0-1.5.2-1.9.5s-.7.9-.7,1.3.2.8.6,1.1.9.4,1.4.4c.7,0,1.4-.3,1.9-.8h0Z" style="fill:#747d80;"/><path d="m75.3,99.3v-9.1h1.7v1.5h0c.2-.5.6-.9,1.1-1.2s1.1-.5,1.6-.5,1,.1,1.3.2l-.7,1.6c-.2-.1-.5-.1-.9-.1-.6,0-1.2.2-1.7.7s-.7,1.1-.7,1.9v5h-1.7Z" style="fill:#747d80;"/><path d="m86.3,97.6c-1.3-1.3-2-2.9-2-4.8s.7-3.5,2-4.8,3-2,4.9-2,3.6.7,4.9,2,2,2.9,2,4.8-.7,3.5-2,4.8-3,2-4.9,2-3.6-.7-4.9-2h0Zm8.6-1.1c1-1,1.5-2.2,1.5-3.7s-.5-2.8-1.5-3.7-2.2-1.5-3.7-1.5-2.7.5-3.7,1.5-1.5,2.2-1.5,3.7.5,2.8,1.5,3.7,2.2,1.5,3.7,1.5,2.7-.5,3.7-1.5Z" style="fill:#747d80;"/><path d="m100.5,98.7c-.9-.6-1.5-1.5-1.8-2.6l1.6-.6c.2.7.6,1.3,1.2,1.8s1.2.7,2,.7,1.4-.2,1.9-.6.8-.9.8-1.6-.3-1.3-.8-1.7-1.4-.8-2.5-1.1c-1.2-.4-2.1-.8-2.7-1.4s-.9-1.3-.9-2.2.4-1.8,1.1-2.4c.8-.7,1.8-1,3-1,1.1,0,2.1.3,2.8.8s1.2,1.2,1.4,1.8l-1.6.6c-.1-.4-.4-.8-.8-1.1s-1-.5-1.7-.5-1.2.2-1.7.5c-.5.4-.7.8-.7,1.3s.2.9.6,1.2,1.1.6,1.9.9c.7.2,1.2.4,1.7.6.4.2.9.4,1.3.8s.8.7,1,1.2.3,1,.3,1.7-.1,1.2-.4,1.7-.6.9-1.1,1.2-.9.5-1.4.7-1,.2-1.6.2c-1,0-2-.3-2.9-.9h0Z" style="fill:#747d80;"/></svg>